<svg xmlns="http://www.w3.org/2000/svg" viewBox="0 0 50 50"><defs><style>.cls-1{fill:#f3cc23;}.cls-2,.cls-3{fill:#1f1e21;}.cls-3{fill-rule:evenodd;}</style></defs><g id="Capa_2" data-name="Capa 2"><g id="Porque"><circle class="cls-1" cx="25" cy="25" r="25"/><path class="cls-2" d="M29.69,10.43A7.72,7.72,0,0,0,16.77,13.9,1.74,1.74,0,0,0,18,16a1.75,1.75,0,0,0,2.14-1.23,4.23,4.23,0,1,1,6.61,4.5c-1.83,1.37-5.29,1.83-7.49,2.43a3.7,3.7,0,0,0-2.75,3.6v13a1.74,1.74,0,0,0,1.74,1.74h12a1.73,1.73,0,0,0,1.73-1.74q0-11.22,0-22.43A7.69,7.69,0,0,0,29.69,10.43ZM24.23,37.32a5,5,0,1,1,5-5A5,5,0,0,1,24.23,37.32Z"/><polygon class="cls-3" points="20.81 31.06 27.64 31.06 27.64 33.62 20.81 33.62 20.81 31.06 20.81 31.06"/></g></g></svg>