<svg xmlns="http://www.w3.org/2000/svg" viewBox="0 0 50 50"><defs><style>.cls-1{fill:#f3cc23;}.cls-2,.cls-3{fill:#1f1e21;}.cls-3{fill-rule:evenodd;}</style></defs><g id="Capa_2" data-name="Capa 2"><g id="Porque"><circle class="cls-1" cx="25" cy="25" r="25"/><path class="cls-2" d="M30.73,36.76l.4,1.89a.56.56,0,0,1-.53.7H29.44c-.3,0-.48-.35-.42-.64l.41-1.94H18.15l-.76,4.47c0,.05.13.21.37.31,1.83.75,5.27,1,7.23,1a23.45,23.45,0,0,0,7.23-1c.25-.1.39-.19.39-.24l-.77-4.54ZM17.48,17.39v3.77l1.38,4c.23.67.61,1.2,1.37,1.2h.51l0-1.5h2.18v1.5H27v-1.5h2.18v1.5h.53c.76,0,1.14-.53,1.37-1.2l1.38-4V17.39c.51.13,1.11.18,1.64.26v1.72a6.86,6.86,0,0,1,1.7-.77,5.15,5.15,0,0,1,5.61,2l.25.44a5.33,5.33,0,0,0-3.41-.94,4.93,4.93,0,0,0-3.35,1.43,12,12,0,0,1,1.92,6.31v4.59c2-3,4.41-7.44,2.49-11a2,2,0,0,0-.11-.2,4.1,4.1,0,0,1,1.89.75,4,4,0,0,1,1.3,1.76c.4,4.78-2.83,8.63-5.25,12.41.5,2.49,1,5-2.3,5.88l-.9.22a2.8,2.8,0,0,1-1.14.78c-2.06.84-5.65,1.07-7.85,1.07a24.5,24.5,0,0,1-7.85-1.08A2.85,2.85,0,0,1,16,42.28l-.9-.22c-3.29-.84-2.8-3.39-2.3-5.88-2.42-3.78-5.65-7.63-5.24-12.41a3.84,3.84,0,0,1,3.18-2.51l-.11.2c-1.92,3.57.53,8.05,2.49,11V27.88a11.91,11.91,0,0,1,1.93-6.31,5,5,0,0,0-3.36-1.43,5.33,5.33,0,0,0-3.41.94c.08-.15.17-.3.26-.44a5.14,5.14,0,0,1,5.6-2,7.08,7.08,0,0,1,1.71.77V17.65c.53-.08,1.12-.13,1.63-.26ZM33.7,22.7l-1,3A3.06,3.06,0,0,1,29.73,28h-.51v.92a1.09,1.09,0,0,1-2.18,0V28h-4.1v.92a1.09,1.09,0,1,1-2.18,0V28h-.53a3,3,0,0,1-2.92-2.31l-1-3a10.27,10.27,0,0,0-1.52,5.18V34a12.17,12.17,0,0,1-.35,2.43c-.35,1.75-.72,3.56,1.09,4l.34.09,1-5.7c.27-1.6,1.5-2.55,3.17-3.08a17.15,17.15,0,0,1,5-.61,17.18,17.18,0,0,1,5,.6c1.66.52,2.89,1.46,3.17,3.07l1,5.72.34-.09c1.81-.46,1.44-2.27,1.09-4A12.89,12.89,0,0,1,35.23,34V27.88A10.27,10.27,0,0,0,33.7,22.7Zm-15.37,13H31.65l-.1-.56c-.14-.88-.95-1.43-2.05-1.78A15.69,15.69,0,0,0,25,32.8a15.68,15.68,0,0,0-4.51.54c-1.1.35-1.9.91-2.05,1.78l-.1.55Z"/><path class="cls-3" d="M29.75,9.91c2.06.58,2.06,5.63,0,6.2a16.72,16.72,0,0,1-4.76.72,16.55,16.55,0,0,1-4.75-.72c-2.07-.57-2.07-5.62,0-6.2A16.55,16.55,0,0,1,25,9.19a16.72,16.72,0,0,1,4.76.72Zm6.74,6.69-3.33-.47A2.64,2.64,0,0,1,32,15.72a5.75,5.75,0,0,0,0-5.39,2.63,2.63,0,0,1,1.13-.44l3.33-.47c3.24-.46,3.24,7.64,0,7.18Zm-23-7.18,3.34.47a2.68,2.68,0,0,1,1.13.44,5.72,5.72,0,0,0,0,5.39,2.64,2.64,0,0,1-1.14.41l-3.34.47c-3.24.46-3.24-7.64,0-7.18Z"/></g></g></svg>