<svg xmlns="http://www.w3.org/2000/svg" viewBox="0 0 50 50"><defs><style>.cls-1{fill:#f3cc23;}.cls-2{fill-rule:evenodd;}</style></defs><g id="Capa_2" data-name="Capa 2"><g id="Porque"><circle class="cls-1" cx="25" cy="25" r="25"/><path d="M9.15,17.55l5.78-1.45a18.65,18.65,0,0,0,2.13,3.64l-2.91,7.31.95,3.41,4.59-2V23.65l1.1,1.62v3.16l10.39,2.23V19.07L30,18.79c.34-.51.62-.94.91-1.47l.87.2,10.8-1.35a.83.83,0,0,1,.92.82V38.32a.82.82,0,0,1-.74.82L31.83,40.51a1.06,1.06,0,0,1-.31,0L20.24,37.8,9.5,40.49a.82.82,0,0,1-1-.8V18.36a.83.83,0,0,1,.67-.81Zm17.38,14.9-1.24,4.86,5.89,1.41V33.45l-4.65-1Zm-3.9,4.23,1.23-4.8-3.07-.66v5l1.84.44Zm13.28-18a30.74,30.74,0,0,1,3.75,9.39l2.19-.74V17.92l-5.94.74Zm4.25,12.1a40.3,40.3,0,0,1,.36,7l1.33-.17V30.19l-1.69.57Zm-2.38,7.35a38.07,38.07,0,0,0-.26-6.46l-5.24,1.77V38.8l5.5-.69Zm-.72-9.18A28.17,28.17,0,0,0,32.91,19l-.63.08V30.55l4.78-1.62ZM10.12,32.65l2.46-1.08L11.4,27.34a1.41,1.41,0,0,1,.08-.93l3.41-8.61L10.12,19V32.65Zm9.57-1.22-9.57,4.19v3l9.57-2.39V31.43Z"/><path class="cls-2" d="M29,17.83l-5.4,8a.47.47,0,0,1-.39.18.45.45,0,0,1-.38-.18l-5.4-8A8.58,8.58,0,0,1,15.68,13a7.52,7.52,0,0,1,15,0A8.6,8.6,0,0,1,29,17.83ZM23.2,8.74a4.11,4.11,0,1,0,4.1,4.1,4.11,4.11,0,0,0-4.1-4.1Z"/></g></g></svg>