<svg xmlns="http://www.w3.org/2000/svg" viewBox="0 0 50 50"><defs><style>.cls-1{fill:#f3cc23;}.cls-2,.cls-3{fill:#1f1e21;}.cls-3{fill-rule:evenodd;}</style></defs><g id="Capa_2" data-name="Capa 2"><g id="Porque"><circle class="cls-1" cx="25" cy="25" r="25"/><path class="cls-2" d="M25.56,15.62v.6c.35.08.58.23.58.4v.79a4.61,4.61,0,0,1,4.41,4.11h.22a.57.57,0,0,1,.58.57.58.58,0,0,1-.58.58H19.2a.58.58,0,0,1-.58-.58.57.57,0,0,1,.58-.57h.22a4.6,4.6,0,0,1,4.41-4.11v-.79c0-.17.23-.32.58-.4v-.6h-.87a.58.58,0,0,1-.52-.83,1.78,1.78,0,0,1,.46-.71c.5-.43,1.21-.33,2-.33A1.47,1.47,0,0,1,27,14.83a.58.58,0,0,1-.54.79ZM18,18.93l-2.48-.58-.27,1.3,2.72-.2,0-.52ZM30,16.65l.93-2.37,1.22.53-1.7,2.1L30,16.65Zm1.62.57,2-1.55.77,1.08-2.56.92-.25-.45Zm.36,1.71,2.48-.58.27,1.3L32,19.45l0-.52ZM20,16.65l-.93-2.37-1.22.53,1.7,2.1.45-.26Zm-1.62.57-2-1.55-.77,1.08,2.56.92.25-.45Zm12.88,8.22-.43-1.28a.29.29,0,0,0-.28-.2H19.41a.29.29,0,0,0-.28.2l-.43,1.28a.58.58,0,0,0-.37.54.57.57,0,0,0,.58.57H31.06a.57.57,0,0,0,.58-.57.58.58,0,0,0-.37-.54Zm-1.82-3.92a4.55,4.55,0,0,0-2.57-3.17,7.3,7.3,0,0,1,1.18,3.17Zm-7.55,0a7.3,7.3,0,0,1,1.18-3.17,4.59,4.59,0,0,0-2.57,3.17Z"/><path class="cls-3" d="M11.1,30.3V10.44c0-.1,0-.14.14-.14H38.73c.1,0,.14,0,.14.14V30.31a.13.13,0,0,1-.14.14H11.24c-.1,0-.14-.05-.14-.15ZM8.74,32,7.32,33.81c-.34.43-.84.84-.84,1.44a2,2,0,0,0,1.84,1.66H41.7a2,2,0,0,0,1.79-1.64c0-.52-1-1.65-1.36-2.1l-.81-1.06a2.64,2.64,0,0,0-1-.74,1.89,1.89,0,0,0,.32-1.05V10.44a1.86,1.86,0,0,0-1.88-1.87H11.24a1.86,1.86,0,0,0-1.88,1.87V30.3a1.93,1.93,0,0,0,.31,1,2.47,2.47,0,0,0-.93.68Zm31,1.88c.34,0,.46-.23.31-.54s-.6-1.19-1.13-1.19H11.08c-.52,0-.94.81-1.14,1.19s0,.54.29.54h9.55l-.1.73a.22.22,0,0,0,.24.27h10c.18,0,.43-.1.38-.27l-.23-.73Z"/></g></g></svg>