<svg xmlns="http://www.w3.org/2000/svg" viewBox="0 0 50 50"><defs><style>.cls-1{fill:#f3cc23;}.cls-2{fill:#1f1e21;fill-rule:evenodd;}</style></defs><g id="Capa_2" data-name="Capa 2"><g id="Porque"><circle class="cls-1" cx="25" cy="25" r="25"/><path class="cls-2" d="M20.4,4.87l.73,1,1.22.39-.75,1V8.58l-1.2-.4-1.21.4V7.32l-.76-1,1.21-.38.74-1ZM33.73,7l-.61.85-1,.33.63.84v1.07l1-.34,1,.34V9l.63-.86-1-.32L33.73,7ZM16.27,7l.61.85,1,.33L17.27,9v1.07l-1-.34-1,.34V9l-.63-.86,1-.32L16.27,7ZM25,3.43l.78,1.1L27.1,5,26.29,6V7.41L25,7l-1.31.43,0-1.35L22.9,5l1.3-.4L25,3.43Zm4.6,1.44-.73,1-1.22.39.75,1V8.58l1.2-.4,1.21.4V7.32l.76-1-1.21-.38-.74-1Z"/><path class="cls-2" d="M32.42,13H17.58V41.15h1.54V31.88h1.24v9.27h.93V35.59a3.71,3.71,0,1,1,7.42,0v5.56h.93V31.88h1.24v9.27h1.54V13ZM36.75,32.8H35.51v3.1h1.24V32.8Zm2.48,0H38v3.1h1.24V32.8Zm-2.48-4.32H35.51v3.09h1.24V28.48Zm2.48,0H38v3.09h1.24V28.48Zm-2.48-4.33H35.51v3.09h1.24V24.15Zm2.48,0H38v3.09h1.24V24.15Zm-26,8.65h1.24v3.1H13.25V32.8Zm-2.48,0H12v3.1H10.77V32.8Zm2.48-4.32h1.24v3.09H13.25V28.48Zm-2.48,0H12v3.09H10.77V28.48ZM23.45,14.56h3.1v4.33h-3.1V14.56Zm-4.33,0H21.6v4.33H19.12V14.56Zm9.28,0h2.48v4.33H28.4V14.56Zm-4.95,5.88h3.1v4.17h-3.1V20.44Zm-4.33,0H21.6v4.17H19.12V20.44Zm9.28,0h2.48v4.17H28.4V20.44Zm-4.95,5.72h3.1v4.17h-3.1V26.16Zm-4.33,0H21.6v4.17H19.12V26.16Zm9.28,0h2.48v4.17H28.4V26.16Zm-15.15-2h1.24v3.09H13.25V24.15Zm-2.48,0H12v3.09H10.77V24.15Zm-4-3.1h9V12.4H14.8V11.16H35.2V12.4h-.92v8.65h9v1.24h-.93V40.23h-8V43H15.72V40.23h-8V22.29H6.75V21.05Zm9,1.86H9.54V38.37h6.18V22.91ZM34.28,38.37V22.91h6.18V38.37Z"/></g></g></svg>