<svg xmlns="http://www.w3.org/2000/svg" viewBox="0 0 29.98 30"><g id="Capa_2" data-name="Capa 2"><g id="Itinerario"><g id="Itinerario-2" data-name="Itinerario"><path d="M30,15A15,15,0,1,0,15,30h0l.08,0,.13,0A15,15,0,0,0,30,15ZM15.88,29.14V27.69a.8.8,0,1,0-1.6,0v1.46A14.19,14.19,0,0,1,.84,15.85h1.6a.8.8,0,1,0,0-1.59H.84A14.18,14.18,0,0,1,14.28.84V2.42a.8.8,0,0,0,1.6,0V.84A14.2,14.2,0,0,1,29.15,14.28l-.11,0H27.71a.8.8,0,1,0,0,1.59H29l.1,0A14.19,14.19,0,0,1,15.88,29.14Z"/><path d="M23.18,8.1l-8.37,7.09L6.69,12.71a.8.8,0,0,0-1,.54.79.79,0,0,0,.54,1l9,2.73,9-7.65a.79.79,0,0,0,.1-1.12A.81.81,0,0,0,23.18,8.1Z"/></g></g></g></svg>