<svg xmlns="http://www.w3.org/2000/svg" viewBox="0 0 41.61 27.71"><defs><style>.cls-1{fill:#1f1e21;}</style></defs><g id="Capa_2" data-name="Capa 2"><g id="Itinerario"><g id="Itinerario-2" data-name="Itinerario"><path class="cls-1" d="M41.61,20.8V16.57a3.89,3.89,0,0,0-3.89-3.88h-.21V2.16a2.16,2.16,0,1,0-4.32,0v.22H8.41V2.16A2.13,2.13,0,0,0,6.26,0,2.16,2.16,0,0,0,4.1,2.16V12.69H3.88A3.88,3.88,0,0,0,0,16.57V21.4H0v5.23a1.08,1.08,0,0,0,1.08,1.08H3.41a1.07,1.07,0,0,0,1-.61l1.09-2.33H36.15l1.09,2.34a1.06,1.06,0,0,0,1,.6h2.33a1.09,1.09,0,0,0,1.08-1.08V20.8ZM4.7,2.16A1.58,1.58,0,0,1,6.26.6,1.53,1.53,0,0,1,7.81,2.16V3h26V2.16a1.56,1.56,0,1,1,3.12,0V12.69H34.18V9.62a3.75,3.75,0,0,0-3.75-3.75H25.77A3.76,3.76,0,0,0,22,9.62v3.07H19.59V9.58a3.75,3.75,0,0,0-3.75-3.75H11.18A3.76,3.76,0,0,0,7.42,9.58v3.11H4.7ZM33.58,12.69h-11V9.62a3.16,3.16,0,0,1,3.16-3.15h4.66a3.15,3.15,0,0,1,3.15,3.15ZM19,12.69H8V9.58a3.16,3.16,0,0,1,3.16-3.15h4.66A3.15,3.15,0,0,1,19,9.58ZM.6,16.57a3.28,3.28,0,0,1,3.28-3.28H37.72A3.29,3.29,0,0,1,41,16.57V20.8H.6ZM41,26.63a.47.47,0,0,1-.48.48H38.2a.47.47,0,0,1-.42-.26l-1.25-2.68H5.07L3.83,26.84a.48.48,0,0,1-.42.27H1.08a.47.47,0,0,1-.48-.48V21.4H41Z"/></g></g></g></svg>