<?xml version="1.0" encoding="UTF-8"?><svg xmlns="http://www.w3.org/2000/svg" viewBox="0 0 41.14 30.72"><defs><style>.d{fill:#1f1e21;}</style></defs><g id="a"/><g id="b"><g id="c"><path class="d" d="M38.39,0h-15.36c-.73,0-1.42,.29-1.94,.8-.51,.51-.8,1.21-.8,1.94V7.29l-5.35,4.92c-.17,.15-.22,.39-.14,.6,.08,.21,.29,.35,.51,.35h4.98v12.62c0,.73,.29,1.42,.8,1.94,.51,.51,1.21,.8,1.94,.8h15.36c.73,0,1.42-.29,1.94-.8,.51-.51,.8-1.21,.8-1.94V2.74c0-.73-.29-1.42-.8-1.94C39.82,.29,39.12,0,38.39,0h0Zm1.65,25.78c0,.44-.17,.85-.48,1.16-.31,.31-.73,.48-1.16,.48h-15.36c-.44,0-.85-.17-1.16-.48-.31-.31-.48-.73-.48-1.16V12.62c0-.15-.06-.29-.16-.39-.1-.1-.24-.16-.39-.16h-4.12l4.49-4.14c.11-.1,.18-.25,.18-.4V2.74c0-.44,.17-.85,.48-1.16,.31-.31,.73-.48,1.16-.48h15.36c.44,0,.85,.17,1.16,.48,.31,.31,.48,.73,.48,1.16V25.78ZM4.39,19.75h0c-.87,0-1.71,.35-2.33,.97-.62,.62-.96,1.45-.96,2.33v6.58c0,.3-.25,.55-.55,.55s-.55-.25-.55-.55v-6.58c0-1.16,.46-2.28,1.29-3.1,.82-.82,1.94-1.29,3.1-1.29H13.16c1.16,0,2.28,.46,3.1,1.29,.82,.82,1.29,1.94,1.29,3.1v6.58c0,.3-.25,.55-.55,.55s-.55-.25-.55-.55v-6.58c0-.87-.35-1.71-.96-2.33-.62-.62-1.45-.96-2.33-.96H4.39Zm.5-5.96h0c.14,1.35,.94,2.54,2.13,3.17,1.19,.64,2.63,.64,3.82,0,1.2-.64,2-1.83,2.13-3.17l.22-2.17h0c.12-1.15-.25-2.29-1.02-3.14-.77-.86-1.87-1.34-3.02-1.34h-.45c-1.15,0-2.25,.49-3.02,1.34-.77,.86-1.14,2-1.03,3.14l.22,2.17Zm1.62-4.57h0c.56-.62,1.37-.98,2.21-.98h.45c.84,0,1.64,.36,2.21,.98,.56,.62,.84,1.46,.75,2.3l-.22,2.17c-.1,.98-.69,1.85-1.56,2.32-.87,.46-1.92,.46-2.79,0-.87-.46-1.46-1.33-1.56-2.32l-.22-2.17c-.09-.84,.19-1.67,.75-2.29h0Zm-2.11,21.51c-.15,0-.29-.06-.39-.16-.1-.1-.16-.24-.16-.39v-4.94c0-.3,.25-.55,.55-.55s.55,.25,.55,.55v4.94c0,.15-.06,.29-.16,.39-.1,.1-.24,.16-.39,.16h0Zm8.78,0h0c-.15,0-.29-.06-.39-.16-.1-.1-.16-.24-.16-.39v-4.94c0-.3,.25-.55,.55-.55s.55,.25,.55,.55v4.94c0,.15-.06,.29-.16,.39-.1,.1-.24,.16-.39,.16h0ZM32.36,4.94h-3.29c-.15,0-.29,.06-.39,.16-.1,.1-.16,.24-.16,.39v12.07c0,.15,.06,.29,.16,.39,.1,.1,.24,.16,.39,.16h3.29c.15,0,.29-.06,.39-.16s.16-.24,.16-.39V5.48c0-.15-.06-.29-.16-.39-.1-.1-.24-.16-.39-.16h0Zm-.55,12.07h-2.19V6.03h2.19v10.97Zm.55,2.74h-3.29c-.15,0-.29,.06-.39,.16-.1,.1-.16,.24-.16,.39v3.29c0,.15,.06,.29,.16,.39,.1,.1,.24,.16,.39,.16h3.29c.15,0,.29-.06,.39-.16,.1-.1,.16-.24,.16-.39v-3.29c0-.15-.06-.29-.16-.39-.1-.1-.24-.16-.39-.16h0Zm-.55,3.29h-2.19v-2.19h2.19v2.19Z"/></g></g></svg>