<svg xmlns="http://www.w3.org/2000/svg" viewBox="0 0 109.09 58.68"><defs><style>.cls-1{fill:#f3cc23;}</style></defs><g id="Capa_2" data-name="Capa 2"><g id="Reseñas"><path class="cls-1" d="M16.32,21.15c4,0,8,.06,11.94,0,4.75-.08,9.48-.35,14.23-.37a152.62,152.62,0,0,1,17.62.84c2.11.24,4.22.52,6.34.76a7.77,7.77,0,0,0,1.67,0c1.32-.14,1.76-1,1.15-2.21a29.74,29.74,0,0,0-4.61-6.3c-1.79-2-3.6-3.92-5.39-5.89a3.23,3.23,0,0,1-.74-3.38A8.77,8.77,0,0,1,61.17.68,2.75,2.75,0,0,1,63.82.13a19.68,19.68,0,0,1,3.66,1.46C75.73,6.1,83.91,10.75,92.2,15.18A52.9,52.9,0,0,1,107,26.38a9.29,9.29,0,0,1,1.87,2.91c.72,2-.06,3.74-1.46,5.2a26.57,26.57,0,0,1-7.63,5.06c-4.44,2.21-9.2,3.59-13.89,5.14a68.54,68.54,0,0,0-14.75,7c-3.52,2.2-7.14,4.26-10.77,6.29a4.68,4.68,0,0,1-6.87-2.09c-1.82-3.49-1.39-6.75,1-9.86a20.71,20.71,0,0,1,6.37-5.67c.71-.4,1.49-.81,1.49-1.76a2,2,0,0,0-1.63-1.8A26.6,26.6,0,0,0,56,35.65a148.83,148.83,0,0,0-23.79-.57c-6.87.26-13.72.75-20.59,1.1-1.94.09-3.89,0-5.84,0A3.88,3.88,0,0,1,4.61,36a2.68,2.68,0,0,1-2.1-3.22,4.64,4.64,0,0,0-1-3.75A5.62,5.62,0,0,1,0,24.9a4.34,4.34,0,0,1,4.49-3.73c3.37,0,6.75.07,10.12.11h1.68v-.13"/></g></g></svg>