<?xml version="1.0" encoding="UTF-8"?><svg xmlns="http://www.w3.org/2000/svg" viewBox="0 0 59.66 39.43"><defs><style>.d{fill:#666;}</style></defs><g id="a"/><g id="b"><g id="c"><g><path class="d" d="M10.8,13.5c0-2.76,2.26-5.02,5.02-5.02h6.78c2.76,0,5.02,2.26,5.02,5.02v2.45h4.4v-2.39c0-2.76,2.26-5.02,5.02-5.02h6.78c2.76,0,5.02,2.26,5.02,5.02v2.39h4.84V2.7c0-1.51-1.19-2.7-2.7-2.7s-2.7,1.19-2.7,2.7v.75H11.36v-.75c0-1.51-1.19-2.7-2.7-2.7s-2.7,1.26-2.7,2.7V15.95h4.84v-2.45Z"/><path class="d" d="M15.82,11.12c-1.32,0-2.45,1.07-2.45,2.45v2.39h11.62v-2.39c0-1.32-1.07-2.45-2.45-2.45h-6.72Z"/><path class="d" d="M37.05,11.12c-1.32,0-2.45,1.07-2.45,2.45v2.39h11.62v-2.39c0-1.32-1.07-2.45-2.45-2.45h-6.72Z"/><path class="d" d="M54.44,18.46H5.21c-2.89,0-5.21,2.32-5.21,5.21v4.08H59.66v-4.08c0-2.89-2.32-5.21-5.21-5.21"/><path class="d" d="M0,38.31c0,.63,.5,1.13,1.13,1.13h3.39c.44,0,.82-.25,1-.63l1.69-3.64H52.43l1.69,3.64c.19,.38,.57,.63,1.01,.63h3.39c.63,0,1.13-.5,1.13-1.13v-8.04H0v8.04Z"/></g></g></g></svg>