<?xml version="1.0" encoding="UTF-8"?><svg xmlns="http://www.w3.org/2000/svg" viewBox="0 0 34.25 52.58"><defs><style>.d{fill:#666;}</style></defs><g id="a"/><g id="b"><g id="c"><g><path class="d" d="M24.44,8.44h0c-.66,.41-4.03,1.8-7.82-1.75-1.52-1.54-2.24-3.9-2.24-3.9,0,0,1.62,.73,2.88,.24,.86-.33,1.71-1.35,1.87-1.56,.39-.44,.88-.82,1.45-1.08,2.23-1.01,4.86,0,5.87,2.25,.99,2.19,.09,4.72-2,5.8Z"/><path class="d" d="M11.66,15.62l-6.42-1.6,1.3-5.39,1.08,.26-1.04,4.32,4.29,1.07,1.08-4.28,1.07,.27-1.35,5.35Zm-.45-12.46c-3.24-.78-6.49,1.2-7.27,4.44L1.31,18.44l8.84,2.19-.29,1.17L1.03,19.61l-.86,3.54c-.63,2.59,.46,3.84,3.05,4.51,.38,.1,4.53,1.05,6.18,1.43l-.65,2.62c-.1,.4,.14,.81,.55,.91,.06,.01,.26,.06,.32,.06,.34,0,.64-.23,.72-.57L15.65,10.42c.78-3.23-1.2-6.49-4.44-7.27Z"/><path class="d" d="M19.49,10.06c-.16,0-.46,.03-.59,.06-2.33,.4-3.19,3.18-3.19,3.18l-2.46,10.36,7-4.08-.64-1.37c-.14-.3,0-.65,.29-.79,.3-.14,.65-.01,.79,.29l.83,1.8s0,0,0,0c0,0,0,.02,0,.03l1.61,3.48,.16,.33c.1,.19,.44,.53,.75,.66l6.49,2.48-4.14,7.12-5.43-5.1,1.09-4.99-1.32-2.85-7.88,4.6-3.05,12.81-6.46,10.1c-.24,.34-.36,.74-.36,1.21-.1,.81,.12,1.51,.64,2.11,.52,.6,1.19,.94,2,1.04,1.19,.09,2.1-.38,2.72-1.43l6.89-10.81c.14-.29,.33-.69,.57-1.22l1.37-5.77,6.37,5.22-7.53,12.94c-.21,.35-.09,.81,.27,1.02,.12,.07,.25,.1,.37,.1,.26,0,.51-.14,.64-.37l6.43-11.05v8.76c.28,1.38,1.16,2.15,2.64,2.29,.81,.05,1.51-.19,2.11-.71,.59-.53,.92-1.17,.96-1.93v-.64l-.05-10.93c0-.86-.2-1.73-.75-2.27l-1.12-1.06,4.48-7.71c1.19,.07,2.05-.61,2.22-1.78,.12-.78-.4-1.49-1.02-1.73l-6.68-2.38-2.62-7.18s-.9-2.74-1.75-3.28c-.85-.54-2.67-.54-2.67-.54"/></g></g></g></svg>