<?xml version="1.0" encoding="UTF-8"?><svg xmlns="http://www.w3.org/2000/svg" viewBox="0 0 64.14 52.58"><defs><style>.d{fill:#666;}</style></defs><g id="a"/><g id="b"><g id="c"><g><path class="d" d="M10.63,34.42c-.91,.94-1.74,1.96-2.46,3.05-.3,.45-.17,1.05,.27,1.34,.45,.3,1.05,.18,1.35-.27,.66-.99,1.41-1.92,2.24-2.77,.19-.18,.3-.43,.3-.7s-.11-.51-.29-.7c-.19-.18-.44-.28-.7-.27-.26,0-.51,.12-.69,.32Z"/><path class="d" d="M43.81,23.27c-1.03,.2-2.21,.41-3.67,.65-.54,.04-.93,.51-.89,1.05,.04,.54,.51,.93,1.05,.89h.16c1.49-.24,2.67-.45,3.73-.65,.26-.03,.5-.18,.66-.4,.16-.22,.22-.49,.16-.75-.05-.26-.21-.49-.43-.63-.22-.14-.5-.19-.76-.12v-.04Z"/><path class="d" d="M26.52,26.38c-1.29,.32-2.53,.65-3.68,1.03-.51,.16-.8,.71-.63,1.22,.16,.51,.71,.8,1.22,.63,1.11-.35,2.27-.65,3.55-.99,.52-.13,.84-.65,.71-1.18-.13-.52-.65-.84-1.17-.71Z"/><path class="d" d="M11.61,40.12c-.38-.38-.99-.38-1.37,0l-2.17,2.17-2.15-2.15c-.37-.38-.99-.39-1.37-.02-.38,.37-.4,.99-.02,1.37l2.17,2.17-2.17,2.17c-.19,.18-.3,.43-.31,.69,0,.26,.1,.52,.29,.7,.19,.19,.44,.29,.7,.28,.26,0,.51-.12,.69-.31l2.17-2.17,.15,.15,2.02,2.02c.38,.35,.98,.35,1.35-.02,.37-.37,.38-.97,.02-1.35l-2.16-2.17,2.17-2.17h0c.38-.38,.38-.99,0-1.37Z"/><path class="d" d="M62.17,14.37V50.47l-13.58-2.51V23.98c.17,.06,.36,.06,.54,0,1.26-.38,2.49-.87,3.66-1.47,.24-.11,.42-.32,.51-.57,.08-.25,.06-.53-.06-.76-.13-.23-.34-.41-.59-.48-.26-.07-.53-.04-.76,.1-1.05,.53-2.15,.96-3.28,1.29V11.84l1.63,.3,5.39,9.53c.17,.3,.5,.49,.84,.49s.67-.19,.84-.49l4.2-7.45,.65,.14Zm-29.11,12.67c.81-.14,1.62-.29,2.43-.42,.54-.09,.9-.59,.81-1.12-.09-.54-.59-.9-1.12-.82l-2.11,.4V14.35l13.58-2.51V47.96l-13.58,2.51V27.04Zm-15.53,4.67c.44-.23,.88-.47,1.34-.69,.24-.1,.44-.3,.53-.55,.1-.25,.08-.52-.03-.76-.11-.24-.32-.42-.57-.51-.25-.08-.53-.06-.76,.06l-.51,.25V11.84l13.58,2.51v11.11c-.34,.21-.51,.61-.44,.99,.05,.27,.21,.51,.44,.65v23.36l-13.58-2.51V31.71ZM1.94,50.47V14.35l13.58-2.51V30.6c-.3,.18-.59,.36-.87,.54h0c-.42,.27-.56,.81-.33,1.25,.22,.44,.75,.64,1.21,.46v15.11l-13.58,2.51ZM56.45,19.23l-5.11-9.06h0s-.03-.1-.06-.14c-.38-.72-.57-1.52-.57-2.33,0-2.05,1.09-3.95,2.87-4.98,1.78-1.02,3.97-1.02,5.75,0,1.78,1.03,2.87,2.92,2.87,4.98,0,.81-.19,1.61-.57,2.32-.02,.05-.04,.09-.06,.14l-5.12,9.06Zm6.99-8.49c.46-.95,.7-1.99,.7-3.05,0-2.04-.81-3.99-2.25-5.43C60.45,.82,58.5,0,56.46,0c-2.04,0-3.99,.82-5.43,2.25-1.44,1.44-2.25,3.39-2.26,5.42,0,.78,.13,1.56,.38,2.3l-1.35-.25h-.35l-15.36,2.83-15.36-2.84c-.08,0-.16,0-.23,0-.06,0-.13,0-.19,0L.8,12.59C.34,12.68,0,13.08,0,13.55V51.61c0,.54,.43,.97,.97,.97h.17l15.4-2.84,15.39,2.84h.35l15.36-2.84,15.36,2.84h.17c.54,0,.97-.43,.97-.97V13.55c0-.47-.33-.87-.8-.96l-.83-.15,.89-1.5c.03-.07,.04-.14,.05-.21Z"/><path class="d" d="M56.45,5.59h0c.65,0,1.24,.39,1.49,1,.25,.6,.11,1.3-.35,1.76-.46,.46-1.16,.6-1.76,.35s-1-.84-1-1.49c0-.43,.17-.84,.47-1.14,.3-.3,.71-.48,1.14-.48Zm0,5.18c.94,0,1.85-.37,2.52-1.04s1.04-1.57,1.04-2.52-.37-1.85-1.04-2.52c-.67-.67-1.57-1.04-2.52-1.04s-1.85,.37-2.52,1.04-1.04,1.57-1.04,2.52,.38,1.85,1.04,2.51c.67,.67,1.57,1.04,2.51,1.04Z"/></g></g></g></svg>