<?xml version="1.0" encoding="UTF-8"?><svg xmlns="http://www.w3.org/2000/svg" viewBox="0 0 20.03 30.75"><g id="a"/><g id="b"><g id="c"><g id="d"><g><path d="M14.29,4.93h0c-.38,.24-2.36,1.05-4.57-1.02-.89-.9-1.31-2.28-1.31-2.28,0,0,.95,.43,1.68,.14,.5-.19,1-.79,1.09-.91,.23-.26,.52-.48,.85-.63,1.3-.59,2.84,0,3.43,1.31,.58,1.28,.05,2.76-1.17,3.39Z"/><path d="M6.82,9.13l-3.75-.94,.76-3.15,.63,.15-.61,2.53,2.51,.63,.63-2.5,.63,.16-.79,3.13Zm-.26-7.29c-1.89-.46-3.79,.7-4.25,2.6L.77,10.78l5.17,1.28-.17,.68L.6,11.47,.1,13.54c-.37,1.51,.27,2.25,1.78,2.64,.22,.06,2.65,.62,3.61,.84l-.38,1.53c-.06,.24,.08,.48,.32,.53,.04,0,.15,.03,.19,.03,.2,0,.37-.13,.42-.33l3.1-12.69c.46-1.89-.7-3.79-2.6-4.25Z"/><path d="M11.4,5.88c-.09,0-.27,.01-.34,.04-1.37,.23-1.87,1.86-1.87,1.86l-1.44,6.06,4.09-2.39-.37-.8c-.08-.17,0-.38,.17-.46,.17-.08,.38,0,.46,.17l.49,1.05h0s0,.02,0,.02l.94,2.03,.09,.19c.06,.11,.25,.31,.44,.39l3.79,1.45-2.42,4.17-3.18-2.98,.64-2.92-.77-1.67-4.61,2.69-1.78,7.49-3.78,5.91c-.14,.2-.21,.43-.21,.71-.06,.47,.07,.88,.38,1.23,.31,.35,.7,.55,1.17,.61,.7,.05,1.23-.22,1.59-.84l4.03-6.32c.08-.17,.2-.4,.33-.71l.8-3.37,3.72,3.05-4.4,7.56c-.12,.21-.05,.47,.16,.6,.07,.04,.14,.06,.22,.06,.15,0,.3-.08,.38-.22l3.76-6.46v5.12c.16,.81,.68,1.26,1.54,1.34,.47,.03,.88-.11,1.23-.42,.35-.31,.54-.68,.56-1.13v-.38l-.03-6.39c0-.51-.12-1.01-.44-1.33l-.66-.62,2.62-4.51c.7,.04,1.2-.36,1.3-1.04,.07-.45-.23-.87-.6-1.01l-3.91-1.39-1.53-4.2s-.53-1.6-1.02-1.92c-.5-.31-1.56-.31-1.56-.31"/></g></g></g></g></svg>